# xmcd
#
# Track frame offsets: 
#        150
#        7517
#        13980
#        22315
#        29112
#        37177
#        46987
#        53630
#        60537
#        68247
#        77175
#        86090
#        93112
#        98112
#        111402
#        118580
#        126452
#        134487
#        144145
#        151855
#        159925
#        169220
#        176102
#        187635
#
# Disc length: 2591 seconds
#
# Revision: 3
# Processed by: cddbd v1.5.2PL0 Copyright (c) Steve Scherf et al.
# Submitted via: ExactAudioCopyFreeDBPlugin 1.0
#
DISCID=420a1d18
DTITLE=Various Artist - Smoky Mountain Gospel
DYEAR=2003
DGENRE=Bluegrass
TTITLE0=Red Smiley and The Bluegrass Cut-Up's - I'll Be No Stranger Here
TTITLE1=Hylo Brown - Walking In Jerusalem
TTITLE2=Jim Greer with Ehe Mac-O-Chee Valley Folks - Paul and Silas
TTITLE3=Lee Moore - Heavenly Cannonball
TTITLE4=Earl Taylor &Jim McCall With The Stoney Mountain Boys - Where 
TTITLE4=You Gonna Hide
TTITLE5=Ritchey Brothers - Heavenly Light is Shining On Me
TTITLE6=Rusty York - City on the Hill
TTITLE7=Red Smiley and The Bluegrass Cut-Ups - A Beautiful Life
TTITLE8=Hylo Brown - If I Could Hear My Mother Pray Again
TTITLE9=G M Farley with The Great Wear Family - When I lay My Burdens 
TTITLE9=Down
TTITLE10=Ritchey Brothers - God Put A Rainbow In The Clouds
TTITLE11=Red White and His Dixie Blue Grass Band - Crying Holy Unto The 
TTITLE11=Lord
TTITLE12=Lee Moore - I Believe That Good Old Bible
TTITLE13=Mac Wiseman - The Black Sheep
TTITLE14=Rusty York - Where The Soul Of Man Never Dies
TTITLE15=Hylo Brown - No Hidin' Place Down Here
TTITLE16=Red Smiley and The Bluegrass Cut-Ups - Living The Right Life No
TTITLE16=w
TTITLE17=Jim Greer and The Mac-O-Chee Valley Folks - Church In The Wildw
TTITLE17=ooods
TTITLE18=G M Farley and The Great Wear Family - Down By The Riverside
TTITLE19=Bobby Smith and The Boys Of Shilo - Victory
TTITLE20=Edith Roberts - God Gave Noah The Rainbow Sign
TTITLE21=Hylo Brown - Lamp Lighting Time In The Valley
TTITLE22=Red Smiley and The Bluegrass Cut-Ups - Smebody Touched Me
TTITLE23=G M Farley and The Great Wear Family - Glory Bound Train
EXTD=YEAR: 2003
EXTT0=
EXTT1=
EXTT2=
EXTT3=
EXTT4=
EXTT5=
EXTT6=
EXTT7=
EXTT8=
EXTT9=
EXTT10=
EXTT11=
EXTT12=
EXTT13=
EXTT14=
EXTT15=
EXTT16=
EXTT17=
EXTT18=
EXTT19=
EXTT20=
EXTT21=
EXTT22=
EXTT23=
PLAYORDER=
